<?xml version="1.0" encoding="UTF-8" standalone="no"?>
<!-- Created with Inkscape (http://www.inkscape.org/) -->

<svg
   xmlns:dc="http://purl.org/dc/elements/1.1/"
   xmlns:cc="http://creativecommons.org/ns#"
   xmlns:rdf="http://www.w3.org/1999/02/22-rdf-syntax-ns#"
   xmlns:svg="http://www.w3.org/2000/svg"
   xmlns="http://www.w3.org/2000/svg"
   xmlns:sodipodi="http://sodipodi.sourceforge.net/DTD/sodipodi-0.dtd"
   xmlns:inkscape="http://www.inkscape.org/namespaces/inkscape"
   width="210mm"
   height="297mm"
   viewBox="0 0 210 297"
   version="1.1"
   id="svg8"
   inkscape:version="0.92.0 r15299"
   sodipodi:docname="rvn.svg">
  <defs
     id="defs2" />
  <sodipodi:namedview
     id="base"
     pagecolor="#ffffff"
     bordercolor="#666666"
     borderopacity="1.0"
     inkscape:pageopacity="0.0"
     inkscape:pageshadow="2"
     inkscape:zoom="0.49497475"
     inkscape:cx="727.20822"
     inkscape:cy="592.03033"
     inkscape:document-units="mm"
     inkscape:current-layer="layer1"
     showgrid="false" />
  <metadata
     id="metadata5">
    <rdf:RDF>
      <cc:Work
         rdf:about="">
        <dc:format>image/svg+xml</dc:format>
        <dc:type
           rdf:resource="http://purl.org/dc/dcmitype/StillImage" />
        <dc:title></dc:title>
      </cc:Work>
    </rdf:RDF>
  </metadata>
  <g
     inkscape:label="レイヤー 1"
     inkscape:groupmode="layer"
     id="layer1">
    <path
       style="color:#000000;clip-rule:nonzero;display:inline;overflow:visible;visibility:visible;opacity:1;isolation:auto;mix-blend-mode:normal;color-interpolation:sRGB;color-interpolation-filters:linearRGB;solid-color:#000000;solid-opacity:1;vector-effect:none;fill:#ffffff;fill-opacity:1;fill-rule:nonzero;stroke:#000000;stroke-width:0.26458332;stroke-linecap:round;stroke-linejoin:miter;stroke-miterlimit:4;stroke-dasharray:none;stroke-dashoffset:0;stroke-opacity:1;marker:none;color-rendering:auto;image-rendering:auto;shape-rendering:auto;text-rendering:auto;enable-background:accumulate"
       d="m 103.94345,32.22768 h 64.06696 v 11.339286 h -64.06696 z"
       id="rect4485" />
    <g
       aria-label="検索"
       style="color:#000000;font-style:normal;font-variant:normal;font-weight:bold;font-stretch:normal;font-size:10.58333302px;line-height:6.61458302px;font-family:Konshin;-inkscape-font-specification:'Konshin Bold';text-indent:0;text-align:start;text-decoration:none;text-decoration-line:none;text-decoration-style:solid;text-decoration-color:#000000;letter-spacing:normal;word-spacing:normal;text-transform:none;writing-mode:lr-tb;direction:ltr;baseline-shift:baseline;text-anchor:start;white-space:normal;clip-rule:nonzero;display:inline;overflow:visible;visibility:visible;opacity:1;isolation:auto;mix-blend-mode:normal;color-interpolation:sRGB;color-interpolation-filters:linearRGB;solid-color:#000000;solid-opacity:1;vector-effect:none;fill:#000000;fill-opacity:1;fill-rule:nonzero;stroke:none;stroke-width:12.20678139;stroke-linecap:round;stroke-linejoin:miter;stroke-miterlimit:4;stroke-dasharray:none;stroke-dashoffset:0;stroke-opacity:1;marker:none;color-rendering:auto;image-rendering:auto;shape-rendering:auto;text-rendering:auto;enable-background:accumulate"
       id="text4489">
      <path
         d="m 84.817863,39.749399 v -1.058333 h -1.058334 v 1.058333 z m -2.116667,0 v -1.058333 h -1.058333 v 1.058333 z m -0.306917,-5.291666 -0.529166,0.529167 0.529166,0.529166 h 1.672167 L 84.595613,34.9869 84.077029,34.457733 Z m -1.80975,3.175 h 2.116667 v -1.058334 h -1.058333 v -0.306916 l -0.529167,-0.53975 -0.529167,0.53975 v 0.306916 h -1.058333 v 2.116667 h 1.058333 z m 4.98475,-2.116667 -0.751416,0.751417 v 0.306916 h -1.058334 v 1.058334 h 2.116667 v 3.175 h -1.058333 v 0.306916 l 0.751416,0.751417 h 0.306917 v 1.058333 h -1.058333 v -0.306916 l -0.740834,-0.751417 h -0.3175 v -1.058333 h -1.058333 v 1.058333 h -0.306917 l -0.751416,0.751417 v 0.306916 h -1.058334 v -1.058333 h 0.306917 l 0.751417,-0.751417 v -0.306916 h -1.058334 v -1.058334 h -1.058333 v 3.175 h -1.058333 v -3.175 h -0.306917 l -0.751416,0.751417 v 0.306917 h -1.058334 v -1.058334 h 0.306917 l 0.751417,-0.751416 v -1.36525 h 1.058333 v -1.058334 h -2.116667 v -1.058333 h 2.116667 V 33.3994 h 1.058333 v 2.116666 h 0.306917 l 1.80975,-1.80975 V 33.3994 h 3.175 v 0.306916 l 0.751416,0.751417 h 0.306917 v 1.058333 z"
         style="font-style:normal;font-variant:normal;font-weight:bold;font-stretch:normal;font-family:'BT 10G Smooth Regular';-inkscape-font-specification:'BT 10G Smooth Regular,  Bold';stroke-width:12.20678139"
         id="path4719" />
      <path
         d="m 92.226196,37.939649 v -0.306916 h -1.058333 v 0.306916 l 0.529166,0.529167 z m -1.058333,1.80975 v -0.306916 l -0.529167,-0.53975 -0.529167,0.53975 v 0.306916 z m 1.058333,0 h 2.116666 v -1.058333 h 0.306917 l 0.751417,-0.751417 v -0.306916 h -2.116667 v 1.058333 h -0.306917 l -0.751416,0.751417 z m 4.233333,-4.233333 h -4.233333 v 1.058333 h 4.233333 v 2.116667 h -0.306917 l -0.751416,0.751417 v 1.36525 h -1.058334 v 0.306916 l 0.751417,0.751417 h 0.306917 v 1.058333 h -1.058334 v -0.306916 l -0.740833,-0.751417 h -0.3175 v -1.058333 h -1.058333 v 2.116666 h -1.058333 v -2.116666 h -1.058334 v 1.058333 h -0.306916 l -0.751417,0.751417 v 0.306916 h -1.058333 v -1.058333 h 0.306916 l 0.751417,-0.751417 v -0.306916 h -2.116667 v -1.058334 h 2.116667 v -1.058333 h 0.306917 l 0.751416,-0.751417 v -0.306916 h -2.116666 v 1.058333 h -1.058334 v -2.116667 h 4.233334 v -1.058333 h -4.233334 v -1.058333 h 4.233334 V 33.3994 h 1.058333 v 1.058333 h 4.233333 z"
         style="font-style:normal;font-variant:normal;font-weight:bold;font-stretch:normal;font-family:'BT 10G Smooth Regular';-inkscape-font-specification:'BT 10G Smooth Regular,  Bold';stroke-width:12.20678139"
         id="path4721" />
    </g>
    <g
       aria-label="出品"
       style="color:#000000;font-style:normal;font-variant:normal;font-weight:bold;font-stretch:normal;font-size:10.58333302px;line-height:6.61458302px;font-family:'BT 10G Smooth Regular';-inkscape-font-specification:'BT 10G Smooth Regular,  Bold';text-indent:0;text-align:start;text-decoration:none;text-decoration-line:none;text-decoration-style:solid;text-decoration-color:#000000;letter-spacing:normal;word-spacing:normal;text-transform:none;writing-mode:lr-tb;direction:ltr;baseline-shift:baseline;text-anchor:start;white-space:normal;clip-rule:nonzero;display:inline;overflow:visible;visibility:visible;opacity:1;isolation:auto;mix-blend-mode:normal;color-interpolation:sRGB;color-interpolation-filters:linearRGB;solid-color:#000000;solid-opacity:1;vector-effect:none;fill:#ffffff;fill-opacity:1;fill-rule:nonzero;stroke:#000000;stroke-width:0.26458332;stroke-linecap:round;stroke-linejoin:miter;stroke-miterlimit:4;stroke-dasharray:none;stroke-dashoffset:0;stroke-opacity:1;marker:none;color-rendering:auto;image-rendering:auto;shape-rendering:auto;text-rendering:auto;enable-background:accumulate"
       id="text4493">
      <path
         d="m 40.443453,93.270828 h 3.175 v -3.175 h 1.058334 v 4.233334 h -9.525 v -4.233334 h 1.058333 v 3.175 h 3.175 v -4.233333 h -3.175 v -3.175 h 1.058333 v 2.116667 h 2.116667 v -3.175 h 1.058333 v 3.175 h 2.116667 v -2.116667 h 1.058333 v 3.175 h -3.175 z"
         style="stroke-width:0.26458332"
         id="path4724" />
      <path
         d="m 52.08512,91.154162 v 2.116666 h 2.116666 v -2.116666 z m -5.291667,0 v 2.116666 h 2.116667 v -2.116666 z m 5.291667,-3.175 v -2.116667 h -3.175 v 2.116667 z m 3.175,6.35 h -4.233334 v -4.233334 h 4.233334 z m -9.525,0 v -4.233334 h 4.233333 v 4.233334 z m 7.408333,-5.291667 h -5.291667 v -4.233333 h 5.291667 z"
         style="stroke-width:0.26458332"
         id="path4726" />
    </g>
    <path
       style="color:#000000;clip-rule:nonzero;display:inline;overflow:visible;visibility:visible;opacity:1;isolation:auto;mix-blend-mode:normal;color-interpolation:sRGB;color-interpolation-filters:linearRGB;solid-color:#000000;solid-opacity:1;vector-effect:none;fill:#ffffff;fill-opacity:1;fill-rule:nonzero;stroke:#000000;stroke-width:0.26903379;stroke-linecap:round;stroke-linejoin:miter;stroke-miterlimit:4;stroke-dasharray:none;stroke-dashoffset:0;stroke-opacity:1;marker:none;color-rendering:auto;image-rendering:auto;shape-rendering:auto;text-rendering:auto;enable-background:accumulate"
       d="M 77.233704,84.95536 H 143.47408 V 96.294646 H 77.233704 Z"
       id="rect4485-8" />
    <path
       style="color:#000000;clip-rule:nonzero;display:inline;overflow:visible;visibility:visible;opacity:1;isolation:auto;mix-blend-mode:normal;color-interpolation:sRGB;color-interpolation-filters:linearRGB;solid-color:#000000;solid-opacity:1;vector-effect:none;fill:#ffffff;fill-opacity:1;fill-rule:nonzero;stroke:#000000;stroke-width:0.26903379;stroke-linecap:round;stroke-linejoin:miter;stroke-miterlimit:4;stroke-dasharray:none;stroke-dashoffset:0;stroke-opacity:1;marker:none;color-rendering:auto;image-rendering:auto;shape-rendering:auto;text-rendering:auto;enable-background:accumulate"
       d="m 76.256699,100.64137 h 66.240381 v 11.33929 H 76.256699 Z"
       id="rect4485-8-7" />
    <path
       style="color:#000000;clip-rule:nonzero;display:inline;overflow:visible;visibility:visible;opacity:1;isolation:auto;mix-blend-mode:normal;color-interpolation:sRGB;color-interpolation-filters:linearRGB;solid-color:#000000;solid-opacity:1;vector-effect:none;fill:#ffffff;fill-opacity:1;fill-rule:nonzero;stroke:#000000;stroke-width:0.26903379;stroke-linecap:round;stroke-linejoin:miter;stroke-miterlimit:4;stroke-dasharray:none;stroke-dashoffset:0;stroke-opacity:1;marker:none;color-rendering:auto;image-rendering:auto;shape-rendering:auto;text-rendering:auto;enable-background:accumulate"
       d="m 79.383087,117.4613 h 66.240383 v 11.33929 H 79.383087 Z"
       id="rect4485-8-4" />
    <path
       style="color:#000000;clip-rule:nonzero;display:inline;overflow:visible;visibility:visible;opacity:1;isolation:auto;mix-blend-mode:normal;color-interpolation:sRGB;color-interpolation-filters:linearRGB;solid-color:#000000;solid-opacity:1;vector-effect:none;fill:#ffffff;fill-opacity:1;fill-rule:nonzero;stroke:#000000;stroke-width:0.26903379;stroke-linecap:round;stroke-linejoin:miter;stroke-miterlimit:4;stroke-dasharray:none;stroke-dashoffset:0;stroke-opacity:1;marker:none;color-rendering:auto;image-rendering:auto;shape-rendering:auto;text-rendering:auto;enable-background:accumulate"
       d="m 76.452103,134.47025 h 66.240377 v 11.33928 H 76.452103 Z"
       id="rect4485-8-49" />
    <path
       style="color:#000000;clip-rule:nonzero;display:inline;overflow:visible;visibility:visible;opacity:1;isolation:auto;mix-blend-mode:normal;color-interpolation:sRGB;color-interpolation-filters:linearRGB;solid-color:#000000;solid-opacity:1;vector-effect:none;fill:#ffffff;fill-opacity:1;fill-rule:nonzero;stroke:#000000;stroke-width:0.18179654;stroke-linecap:round;stroke-linejoin:miter;stroke-miterlimit:4;stroke-dasharray:none;stroke-dashoffset:0;stroke-opacity:1;marker:none;color-rendering:auto;image-rendering:auto;shape-rendering:auto;text-rendering:auto;enable-background:accumulate"
       d="m 161.12378,84.577377 h 30.24687 v 11.339286 h -30.24687 z"
       id="rect4485-8-0" />
    <path
       style="color:#000000;clip-rule:nonzero;display:inline;overflow:visible;visibility:visible;opacity:1;isolation:auto;mix-blend-mode:normal;color-interpolation:sRGB;color-interpolation-filters:linearRGB;solid-color:#000000;solid-opacity:1;vector-effect:none;fill:#ffffff;fill-opacity:1;fill-rule:nonzero;stroke:#000000;stroke-width:0.18179654;stroke-linecap:round;stroke-linejoin:miter;stroke-miterlimit:4;stroke-dasharray:none;stroke-dashoffset:0;stroke-opacity:1;marker:none;color-rendering:auto;image-rendering:auto;shape-rendering:auto;text-rendering:auto;enable-background:accumulate"
       d="m 160.67766,100.26339 h 30.24686 v 11.33929 h -30.24686 z"
       id="rect4485-8-7-6" />
    <path
       style="color:#000000;clip-rule:nonzero;display:inline;overflow:visible;visibility:visible;opacity:1;isolation:auto;mix-blend-mode:normal;color-interpolation:sRGB;color-interpolation-filters:linearRGB;solid-color:#000000;solid-opacity:1;vector-effect:none;fill:#ffffff;fill-opacity:1;fill-rule:nonzero;stroke:#000000;stroke-width:0.18179654;stroke-linecap:round;stroke-linejoin:miter;stroke-miterlimit:4;stroke-dasharray:none;stroke-dashoffset:0;stroke-opacity:1;marker:none;color-rendering:auto;image-rendering:auto;shape-rendering:auto;text-rendering:auto;enable-background:accumulate"
       d="m 162.10524,117.08332 h 30.24687 v 11.33929 h -30.24687 z"
       id="rect4485-8-4-4" />
    <path
       style="color:#000000;clip-rule:nonzero;display:inline;overflow:visible;visibility:visible;opacity:1;isolation:auto;mix-blend-mode:normal;color-interpolation:sRGB;color-interpolation-filters:linearRGB;solid-color:#000000;solid-opacity:1;vector-effect:none;fill:#ffffff;fill-opacity:1;fill-rule:nonzero;stroke:#000000;stroke-width:0.18179654;stroke-linecap:round;stroke-linejoin:miter;stroke-miterlimit:4;stroke-dasharray:none;stroke-dashoffset:0;stroke-opacity:1;marker:none;color-rendering:auto;image-rendering:auto;shape-rendering:auto;text-rendering:auto;enable-background:accumulate"
       d="m 160.76689,134.09225 h 30.24687 v 11.33929 h -30.24687 z"
       id="rect4485-8-49-7" />
    <path
       style="color:#000000;clip-rule:nonzero;display:inline;overflow:visible;visibility:visible;opacity:1;isolation:auto;mix-blend-mode:normal;color-interpolation:sRGB;color-interpolation-filters:linearRGB;solid-color:#000000;solid-opacity:1;vector-effect:none;fill:#ffffff;fill-opacity:1;fill-rule:nonzero;stroke:#000000;stroke-width:0.18179654;stroke-linecap:round;stroke-linejoin:miter;stroke-miterlimit:4;stroke-dasharray:none;stroke-dashoffset:0;stroke-opacity:1;marker:none;color-rendering:auto;image-rendering:auto;shape-rendering:auto;text-rendering:auto;enable-background:accumulate"
       d="m 107.15186,155.8259 h 30.24687 v 11.33928 h -30.24687 z"
       id="rect4485-8-49-7-0" />
    <g
       aria-label="OK"
       style="color:#000000;font-style:normal;font-variant:normal;font-weight:bold;font-stretch:normal;font-size:10.58333302px;line-height:6.61458302px;font-family:'BT 10G Smooth Regular';-inkscape-font-specification:'BT 10G Smooth Regular,  Bold';text-indent:0;text-align:start;text-decoration:none;text-decoration-line:none;text-decoration-style:solid;text-decoration-color:#000000;letter-spacing:normal;word-spacing:normal;text-transform:none;writing-mode:lr-tb;direction:ltr;baseline-shift:baseline;text-anchor:start;white-space:normal;clip-rule:nonzero;display:inline;overflow:visible;visibility:visible;opacity:1;isolation:auto;mix-blend-mode:normal;color-interpolation:sRGB;color-interpolation-filters:linearRGB;solid-color:#000000;solid-opacity:1;vector-effect:none;fill:#ffffff;fill-opacity:1;fill-rule:nonzero;stroke:#000000;stroke-width:0.26458332;stroke-linecap:round;stroke-linejoin:miter;stroke-miterlimit:4;stroke-dasharray:none;stroke-dashoffset:0;stroke-opacity:1;marker:none;color-rendering:auto;image-rendering:auto;shape-rendering:auto;text-rendering:auto;enable-background:accumulate"
       id="text4576">
      <path
         d="m 121.29708,164.70834 0.75142,-0.75141 v -5.9055 l -0.74084,-0.75142 h -0.62441 l -0.75142,0.75142 v 5.9055 l 0.75142,0.75141 z m -2.11667,-7.40833 0.75142,-0.75142 v -0.30691 h 2.11667 v 0.30691 l 0.75141,0.75142 h 0.30692 v 7.40833 h -0.30692 l -0.75141,0.75142 v 0.30692 h -2.11667 v -0.30692 l -0.74083,-0.75142 h -0.3175 v -7.40833 z"
         style="stroke-width:0.26458332"
         id="path4738" />
      <path
         d="m 128.3985,158.35834 h -0.30692 l -0.75142,0.75142 v 1.36525 h -0.30691 l -0.52917,0.52917 0.52917,0.52916 h 0.30691 v 1.36525 l 0.75142,0.75142 h 0.30692 v 2.11667 h -1.05834 v -1.36525 l -0.74083,-0.75142 h -0.3175 v -1.36525 l -0.74083,-0.75142 h -0.3175 v 4.23334 h -1.05834 v -9.525 h 1.05834 v 4.23333 h 0.30691 l 0.75142,-0.75142 v -1.36525 h 0.30692 l 0.75141,-0.75141 v -1.36525 h 1.05834 z"
         style="stroke-width:0.26458332"
         id="path4740" />
    </g>
    <g
       aria-label="りすと"
       style="color:#000000;font-style:normal;font-variant:normal;font-weight:bold;font-stretch:normal;font-size:10.58333302px;line-height:6.61458302px;font-family:'BT 10G Smooth Regular';-inkscape-font-specification:'BT 10G Smooth Regular,  Bold';text-indent:0;text-align:start;text-decoration:none;text-decoration-line:none;text-decoration-style:solid;text-decoration-color:#000000;letter-spacing:normal;word-spacing:normal;text-transform:none;writing-mode:lr-tb;direction:ltr;baseline-shift:baseline;text-anchor:start;white-space:normal;clip-rule:nonzero;display:inline;overflow:visible;visibility:visible;opacity:1;isolation:auto;mix-blend-mode:normal;color-interpolation:sRGB;color-interpolation-filters:linearRGB;solid-color:#000000;solid-opacity:1;vector-effect:none;fill:#ffffff;fill-opacity:1;fill-rule:nonzero;stroke:#000000;stroke-width:0.26458332;stroke-linecap:round;stroke-linejoin:miter;stroke-miterlimit:4;stroke-dasharray:none;stroke-dashoffset:0;stroke-opacity:1;marker:none;color-rendering:auto;image-rendering:auto;shape-rendering:auto;text-rendering:auto;enable-background:accumulate"
       id="text4604">
      <path
         d="m 23.212272,183.30475 0.751417,-0.75141 v -0.30692 h 1.058333 v 1.05833 h -0.306917 l -0.751416,0.75142 v 1.67217 l 0.529166,0.52916 0.529167,-0.52916 v -0.30692 h 1.058333 v 1.05833 h -0.306916 l -0.751417,0.75142 v 0.30692 h -1.058333 v -0.30692 l -0.740834,-0.75142 h -0.3175 v -3.175 z m 4.98475,4.54025 v -4.84716 l -0.740834,-0.75142 h -0.3175 v -1.05833 h 1.058334 v 0.30691 l 0.751416,0.75142 h 0.306917 v 6.35 h -0.306917 l -1.80975,1.80975 v 0.30692 h -2.116666 v -1.05834 h 1.36525 z"
         style="stroke-width:0.26458332"
         id="path4743" />
      <path
         d="m 34.547022,186.78667 0.751416,0.75142 h 1.36525 v -2.11667 h -1.36525 l -0.751416,0.75142 z m 0,2.86808 h 1.36525 l 0.751416,-0.75141 v -0.30692 h -2.116666 v -0.30692 l -0.740834,-0.75141 h -0.3175 v -2.11667 h 0.306917 L 34.547022,184.67 v -0.30691 h 2.116666 v -1.05834 h -5.291666 v -1.05833 h 5.291666 v -1.05833 h 1.058333 v 1.05833 h 3.175 v 1.05833 h -3.175 v 6.35 h -0.306916 l -0.751417,0.75142 v 0.30692 h -2.116666 z"
         style="stroke-width:0.26458332"
         id="path4745" />
      <path
         d="m 46.188688,185.42142 v -4.23333 h 1.058333 v 3.175 h 3.175 v 1.05833 h -3.175 v 1.05833 h -1.36525 l -1.80975,1.80975 v 0.61384 l 0.751417,0.75141 h 6.656916 v 1.05834 h -7.408333 v -0.30692 l -0.740833,-0.75142 h -0.3175 v -2.11666 h 0.306917 l 1.80975,-1.80975 v -0.30692 z"
         style="stroke-width:0.26458332"
         id="path4747" />
    </g>
    <path
       style="color:#000000;clip-rule:nonzero;display:inline;overflow:visible;visibility:visible;opacity:1;isolation:auto;mix-blend-mode:normal;color-interpolation:sRGB;color-interpolation-filters:linearRGB;solid-color:#000000;solid-opacity:1;vector-effect:none;fill:#ffffff;fill-opacity:1;fill-rule:nonzero;stroke:#000000;stroke-width:0.18179654;stroke-linecap:round;stroke-linejoin:miter;stroke-miterlimit:4;stroke-dasharray:none;stroke-dashoffset:0;stroke-opacity:1;marker:none;color-rendering:auto;image-rendering:auto;shape-rendering:auto;text-rendering:auto;enable-background:accumulate"
       d="m 156.09978,211.1994 h 30.24686 v 11.33929 h -30.24686 z"
       id="rect4485-8-49-7-0-4" />
    <g
       aria-label="削除"
       style="color:#000000;font-style:normal;font-variant:normal;font-weight:bold;font-stretch:normal;font-size:10.58333302px;line-height:6.61458349px;font-family:'BT 10G Smooth Regular';-inkscape-font-specification:'BT 10G Smooth Regular, Bold';text-indent:0;text-align:start;text-decoration:none;text-decoration-line:none;text-decoration-style:solid;text-decoration-color:#000000;letter-spacing:normal;word-spacing:normal;text-transform:none;writing-mode:lr-tb;direction:ltr;baseline-shift:baseline;text-anchor:start;white-space:normal;clip-rule:nonzero;display:inline;overflow:visible;visibility:visible;opacity:1;isolation:auto;mix-blend-mode:normal;color-interpolation:sRGB;color-interpolation-filters:linearRGB;solid-color:#000000;solid-opacity:1;vector-effect:none;fill:#ffffff;fill-opacity:1;fill-rule:nonzero;stroke:#000000;stroke-width:0.26458332;stroke-linecap:round;stroke-linejoin:miter;stroke-miterlimit:4;stroke-dasharray:none;stroke-dashoffset:0;stroke-opacity:1;marker:none;color-rendering:auto;image-rendering:auto;shape-rendering:auto;text-rendering:auto;enable-background:accumulate"
       id="text4576-9">
      <path
         d="m 167.82141,213.73185 v -2.11667 h 1.05833 v 2.11667 z m 4.23333,0 v -2.11667 h 1.05834 v 2.11667 z m -3.175,4.23333 v 1.05833 h 3.175 v -1.05833 z m 3.175,-1.05833 v -1.05834 h -3.175 v 1.05834 z m 2.11667,2.11666 v -6.34999 h 1.05833 v 6.34999 z m 2.11667,1.05834 v -8.46667 h 1.05833 v 9.525 h -2.11667 v -1.05833 z m -7.40834,1.05833 h -1.05833 v -6.35 h 2.11667 v -3.175 h 1.05833 v 3.175 h 2.11667 v 6.35 h -1.05834 v -1.05833 h -3.175 z"
         style="stroke-width:0.26458332"
         id="path4751" />
      <path
         d="m 180.52141,212.67352 h -1.05833 v 2.11666 h 0.30691 l 0.75142,-0.75142 z m 0,5.29166 v -1.36525 l -0.74083,-0.75142 h -0.3175 v 2.11667 z m 7.40833,2.11667 v 1.05833 h -1.05833 v -0.30692 l -0.74083,-0.75141 h -0.3175 v -1.05834 h 1.05833 v 0.30692 l 0.75142,0.75142 z m -4.23333,-3.175 v -1.05834 h -1.05833 v -0.30691 l -0.74084,-0.75142 h -0.62441 l -0.52917,0.52917 0.52917,0.52916 h 0.30691 v 1.05834 z m -0.30692,-2.11667 h 2.7305 l 0.52917,-0.52917 -1.57692,-1.58749 h -0.62441 l -1.5875,1.58749 z m 2.42359,-2.86808 1.80975,1.80975 h 0.30691 v 1.05833 h -0.30691 l -0.75142,0.75142 v 0.30691 h -2.11667 v 1.05834 h 3.175 v 1.05833 h -3.175 v 3.175 h -1.05833 v -3.175 h -2.11667 v 0.30692 l 0.75142,0.75141 h 0.30692 v 1.05834 h -0.30692 l -0.75142,0.75141 v 0.30692 h -1.05833 v -1.05833 h 0.30692 l 0.52916,-0.52917 -0.51858,-0.52917 h -1.37583 v 2.11667 h -1.05834 v -9.525 h 3.175 v 2.11667 h 0.30692 l 1.80975,-1.80975 v -0.30692 h 2.11667 z"
         style="stroke-width:0.26458332"
         id="path4753" />
    </g>
    <g
       aria-label="Braton
unko 10% unko 10%
unko 10% unko 10%"
       style="color:#000000;font-style:normal;font-variant:normal;font-weight:bold;font-stretch:normal;font-size:10.58333302px;line-height:100%;font-family:'BT 10G Smooth Regular';-inkscape-font-specification:'BT 10G Smooth Regular, Bold';text-indent:0;text-align:start;text-decoration:none;text-decoration-line:none;text-decoration-style:solid;text-decoration-color:#000000;letter-spacing:normal;word-spacing:normal;text-transform:none;writing-mode:lr-tb;direction:ltr;baseline-shift:baseline;text-anchor:start;white-space:normal;clip-rule:nonzero;display:inline;overflow:visible;visibility:visible;opacity:1;isolation:auto;mix-blend-mode:normal;color-interpolation:sRGB;color-interpolation-filters:linearRGB;solid-color:#000000;solid-opacity:1;vector-effect:none;fill:#ffffff;fill-opacity:1;fill-rule:nonzero;stroke:#000000;stroke-width:0.26458332;stroke-linecap:round;stroke-linejoin:miter;stroke-miterlimit:4;stroke-dasharray:none;stroke-dashoffset:0;stroke-opacity:1;marker:none;color-rendering:auto;image-rendering:auto;shape-rendering:auto;text-rendering:auto;enable-background:accumulate"
       id="text4660">
      <path
         d="m 26.798512,206.85721 v -1.67217 l -0.740833,-0.75141 h -1.375833 v 3.175 h 1.36525 z m 0,-5.9055 -0.740833,-0.75142 h -1.375833 v 3.175 h 1.36525 l 0.751416,-0.75141 z m 1.058333,-0.75142 v 3.175 h -0.306916 l -0.529167,0.52917 0.529167,0.52917 h 0.306916 v 3.175 h -0.306916 l -0.751417,0.75141 v 0.30692 h -3.175 v -9.525 h 3.175 v 0.30692 l 0.751417,0.75141 z"
         style="line-height:100%;stroke-width:0.26458332"
         id="path4756" />
      <path
         d="m 31.031845,204.43363 h -1.058333 v 4.23333 h -1.058333 v -6.35 h 1.058333 v 1.05833 h 0.306917 l 0.751416,-0.75141 v -0.30692 h 2.116667 v 1.05833 h -1.36525 l -0.751417,0.75142 z"
         style="line-height:100%;stroke-width:0.26458332"
         id="path4758" />
      <path
         d="m 35.265179,206.85721 0.751416,0.75142 h 1.36525 v -2.11667 h -1.36525 l -0.751416,0.75142 z m 3.174999,1.80975 h -3.174999 v -0.30692 l -0.740834,-0.75141 h -0.3175 v -2.11667 h 0.306917 l 0.751417,-0.75142 v -0.30691 h 2.116666 v -0.30692 l -0.740833,-0.75142 h -1.375833 v -1.05833 h 2.116666 v 0.30692 l 0.751417,0.75141 h 0.306916 z"
         style="line-height:100%;stroke-width:0.26458332"
         id="path4760" />
      <path
         d="m 41.615179,208.36004 -0.740833,-0.75141 h -0.3175 v -4.23334 h -1.058334 v -1.05833 h 1.058334 v -2.11667 h 1.058333 v 2.11667 h 2.116666 v 1.05833 h -2.116666 v 3.48192 l 0.751417,0.75142 h 1.365249 v 1.05833 h -2.116666 z"
         style="line-height:100%;stroke-width:0.26458332"
         id="path4762" />
      <path
         d="m 45.848512,206.85721 0.751416,0.75142 h 0.613834 l 0.751416,-0.75142 v -2.7305 l -0.740833,-0.75142 h -0.624417 l -0.751416,0.75142 z m -0.751417,-3.48192 0.751417,-0.75141 v -0.30692 h 2.116666 v 0.30692 l 0.751417,0.75141 h 0.306917 v 4.23334 h -0.306917 l -0.751417,0.75141 v 0.30692 h -2.116666 v -0.30692 l -0.740834,-0.75141 h -0.3175 v -4.23334 z"
         style="line-height:100%;stroke-width:0.26458332"
         id="path4764" />
      <path
         d="m 51.140178,203.37529 v 5.29167 h -1.058334 v -6.35 h 3.175 v 0.30692 l 0.751417,0.75141 h 0.306917 v 5.29167 h -1.058334 v -4.54025 l -0.740833,-0.75142 z"
         style="line-height:100%;stroke-width:0.26458332"
         id="path4766" />
      <path
         d="m 23.941012,218.19196 h -0.3175 v -5.29167 h 1.058334 v 4.54025 l 0.751416,0.75142 h 1.36525 v -5.29167 h 1.058333 v 6.35 h -3.174999 v -0.30691 z"
         style="line-height:100%;stroke-width:0.26458332"
         id="path4768" />
      <path
         d="m 29.973512,213.95863 v 5.29166 h -1.058333 v -6.35 h 3.175 v 0.30692 l 0.751416,0.75142 h 0.306917 v 5.29166 h -1.058333 v -4.54025 l -0.740834,-0.75141 z"
         style="line-height:100%;stroke-width:0.26458332"
         id="path4770" />
      <path
         d="m 37.381845,216.07529 v 1.36525 l 0.751417,0.75142 h 0.306916 v 1.05833 h -1.058333 v -0.30691 l -0.740833,-0.75142 h -0.3175 v -1.36525 l -0.740833,-0.75142 h -0.3175 v 3.175 h -1.058334 v -9.525 h 1.058334 v 5.29167 h 0.306916 l 1.80975,-1.80975 v -0.30692 h 1.058333 v 1.05834 h -0.306916 l -1.5875,1.5875 0.529167,0.52916 z"
         style="line-height:100%;stroke-width:0.26458332"
         id="path4772" />
      <path
         d="m 40.556846,217.44054 0.751416,0.75142 h 0.613834 l 0.751416,-0.75142 v -2.7305 l -0.740833,-0.75141 h -0.624417 l -0.751416,0.75141 z m -0.751417,-3.48191 0.751417,-0.75142 v -0.30692 h 2.116666 v 0.30692 l 0.751417,0.75142 h 0.306916 v 4.23333 h -0.306916 l -0.751417,0.75142 v 0.30691 h -2.116666 v -0.30691 l -0.740834,-0.75142 h -0.3175 v -4.23333 z"
         style="line-height:100%;stroke-width:0.26458332"
         id="path4774" />
      <path
         d="m 54.315178,219.25029 h -3.175 v -1.05833 h 1.058333 v -6.35 h -1.058333 v -1.05833 h 1.058333 v -1.05834 h 1.058333 v 8.46667 h 1.058334 z"
         style="line-height:100%;stroke-width:0.26458332"
         id="path4776" />
      <path
         d="m 57.797096,218.19196 0.751416,-0.75142 v -5.9055 l -0.740833,-0.75141 h -0.624417 l -0.751416,0.75141 v 5.9055 l 0.751416,0.75142 z m -2.116667,-7.40833 0.751417,-0.75142 v -0.30692 h 2.116666 v 0.30692 l 0.751417,0.75142 h 0.306916 v 7.40833 h -0.306916 l -0.751417,0.75142 v 0.30691 h -2.116666 v -0.30691 l -0.740834,-0.75142 h -0.3175 v -7.40833 z"
         style="line-height:100%;stroke-width:0.26458332"
         id="path4778" />
      <path
         d="m 63.31101,217.34529 -0.306917,0.3175 0.306917,0.30692 0.306916,-0.30692 z m -1.058334,-6.35 -0.306916,0.3175 0.306916,0.30692 0.3175,-0.30692 z m 0.22225,4.02167 -0.751416,0.75142 v 0.30691 h -1.058334 v -1.05833 h 0.306917 l 0.751417,-0.75142 v -0.30691 h 1.36525 l 0.751416,-0.75142 v -0.30692 h 1.058334 v 1.05834 h -0.306917 l -0.751417,0.75141 v 0.30692 z m -0.4445,2.11667 0.751417,-0.75142 v -0.30692 h 1.058333 v 0.30692 l 0.751417,0.75142 h 0.306917 v 1.05833 h -0.306917 l -0.751417,0.75142 v 0.30691 h -1.058333 v -0.30691 l -0.740833,-0.75142 h -0.3175 v -1.05833 z m -1.058333,-6.35 0.751417,-0.75142 v -0.30692 h 1.058333 v 0.30692 l 0.751417,0.75142 h 0.306916 v 1.05833 H 63.53326 l -0.751417,0.75142 v 0.30691 H 61.72351 v -0.30691 l -0.740834,-0.75142 h -0.3175 v -1.05833 z"
         style="line-height:100%;stroke-width:0.26458332"
         id="path4780" />
      <path
         d="m 71.566012,218.19196 h -0.3175 v -5.29167 h 1.058334 v 4.54025 l 0.751416,0.75142 h 1.36525 v -5.29167 h 1.058333 v 6.35 h -3.174999 v -0.30691 z"
         style="line-height:100%;stroke-width:0.26458332"
         id="path4782" />
      <path
         d="m 77.59851,213.95863 v 5.29166 h -1.058334 v -6.35 h 3.175 v 0.30692 l 0.751417,0.75142 h 0.306917 v 5.29166 h -1.058334 v -4.54025 l -0.740833,-0.75141 z"
         style="line-height:100%;stroke-width:0.26458332"
         id="path4784" />
      <path
         d="m 85.006844,216.07529 v 1.36525 l 0.751417,0.75142 h 0.306917 v 1.05833 h -1.058334 v -0.30691 l -0.740833,-0.75142 h -0.3175 v -1.36525 l -0.740833,-0.75142 h -0.3175 v 3.175 h -1.058334 v -9.525 h 1.058334 v 5.29167 h 0.306916 l 1.80975,-1.80975 v -0.30692 h 1.058334 v 1.05834 h -0.306917 l -1.5875,1.5875 0.529167,0.52916 z"
         style="line-height:100%;stroke-width:0.26458332"
         id="path4786" />
      <path
         d="m 88.181846,217.44054 0.751416,0.75142 h 0.613834 l 0.751416,-0.75142 v -2.7305 l -0.740833,-0.75141 h -0.624417 l -0.751416,0.75141 z m -0.751417,-3.48191 0.751417,-0.75142 v -0.30692 h 2.116666 v 0.30692 l 0.751417,0.75142 h 0.306916 v 4.23333 h -0.306916 l -0.751417,0.75142 v 0.30691 h -2.116666 v -0.30691 l -0.740834,-0.75142 h -0.3175 v -4.23333 z"
         style="line-height:100%;stroke-width:0.26458332"
         id="path4788" />
      <path
         d="m 101.94017,219.25029 h -3.174996 v -1.05833 h 1.058333 v -6.35 h -1.058333 v -1.05833 h 1.058333 v -1.05834 h 1.058333 v 8.46667 h 1.05833 z"
         style="line-height:100%;stroke-width:0.26458332"
         id="path4790" />
      <path
         d="m 105.4221,218.19196 0.75141,-0.75142 v -5.9055 l -0.74083,-0.75141 h -0.62442 l -0.75141,0.75141 v 5.9055 l 0.75141,0.75142 z m -2.11667,-7.40833 0.75142,-0.75142 v -0.30692 h 2.11666 v 0.30692 l 0.75142,0.75142 h 0.30692 v 7.40833 h -0.30692 l -0.75142,0.75142 v 0.30691 h -2.11666 v -0.30691 l -0.74084,-0.75142 h -0.3175 v -7.40833 z"
         style="line-height:100%;stroke-width:0.26458332"
         id="path4792" />
      <path
         d="m 110.93601,217.34529 -0.30692,0.3175 0.30692,0.30692 0.30692,-0.30692 z m -1.05833,-6.35 -0.30692,0.3175 0.30692,0.30692 0.3175,-0.30692 z m 0.22225,4.02167 -0.75142,0.75142 v 0.30691 h -1.05833 v -1.05833 h 0.30691 l 0.75142,-0.75142 v -0.30691 h 1.36525 l 0.75142,-0.75142 v -0.30692 h 1.05833 v 1.05834 h -0.30692 l -0.75141,0.75141 v 0.30692 z m -0.4445,2.11667 0.75141,-0.75142 v -0.30692 h 1.05834 v 0.30692 l 0.75141,0.75142 h 0.30692 v 1.05833 h -0.30692 l -0.75141,0.75142 v 0.30691 h -1.05834 v -0.30691 l -0.74083,-0.75142 h -0.3175 v -1.05833 z m -1.05834,-6.35 0.75142,-0.75142 v -0.30692 h 1.05833 v 0.30692 l 0.75142,0.75142 h 0.30692 v 1.05833 h -0.30692 l -0.75142,0.75142 v 0.30691 h -1.05833 v -0.30691 l -0.74083,-0.75142 h -0.3175 v -1.05833 z"
         style="line-height:100%;stroke-width:0.26458332"
         id="path4794" />
      <path
         d="m 23.941012,228.77529 h -0.3175 v -5.29166 h 1.058334 v 4.54025 l 0.751416,0.75141 h 1.36525 v -5.29166 h 1.058333 v 6.35 h -3.174999 v -0.30692 z"
         style="line-height:100%;stroke-width:0.26458332"
         id="path4796" />
      <path
         d="m 29.973512,224.54196 v 5.29167 h -1.058333 v -6.35 h 3.175 v 0.30691 l 0.751416,0.75142 h 0.306917 v 5.29167 h -1.058333 v -4.54025 l -0.740834,-0.75142 z"
         style="line-height:100%;stroke-width:0.26458332"
         id="path4798" />
      <path
         d="m 37.381845,226.65863 v 1.36525 l 0.751417,0.75141 h 0.306916 v 1.05834 h -1.058333 v -0.30692 l -0.740833,-0.75142 h -0.3175 v -1.36525 l -0.740833,-0.75141 h -0.3175 v 3.175 h -1.058334 v -9.525 h 1.058334 v 5.29166 h 0.306916 l 1.80975,-1.80975 v -0.30691 h 1.058333 v 1.05833 h -0.306916 l -1.5875,1.5875 0.529167,0.52917 z"
         style="line-height:100%;stroke-width:0.26458332"
         id="path4800" />
      <path
         d="m 40.556846,228.02388 0.751416,0.75141 h 0.613834 l 0.751416,-0.75141 v -2.7305 l -0.740833,-0.75142 h -0.624417 l -0.751416,0.75142 z m -0.751417,-3.48192 0.751417,-0.75142 v -0.30691 h 2.116666 v 0.30691 l 0.751417,0.75142 h 0.306916 v 4.23333 h -0.306916 l -0.751417,0.75142 v 0.30692 h -2.116666 v -0.30692 l -0.740834,-0.75142 h -0.3175 v -4.23333 z"
         style="line-height:100%;stroke-width:0.26458332"
         id="path4802" />
      <path
         d="m 54.315178,229.83363 h -3.175 v -1.05834 h 1.058333 v -6.35 h -1.058333 v -1.05833 h 1.058333 v -1.05833 h 1.058333 v 8.46666 h 1.058334 z"
         style="line-height:100%;stroke-width:0.26458332"
         id="path4804" />
      <path
         d="m 57.797096,228.77529 0.751416,-0.75141 v -5.9055 l -0.740833,-0.75142 h -0.624417 l -0.751416,0.75142 v 5.9055 l 0.751416,0.75141 z m -2.116667,-7.40833 0.751417,-0.75142 v -0.30691 h 2.116666 v 0.30691 l 0.751417,0.75142 h 0.306916 v 7.40833 h -0.306916 l -0.751417,0.75142 v 0.30692 h -2.116666 v -0.30692 l -0.740834,-0.75142 h -0.3175 v -7.40833 z"
         style="line-height:100%;stroke-width:0.26458332"
         id="path4806" />
      <path
         d="m 63.31101,227.92863 -0.306917,0.3175 0.306917,0.30691 0.306916,-0.30691 z m -1.058334,-6.35 -0.306916,0.3175 0.306916,0.30691 0.3175,-0.30691 z m 0.22225,4.02166 -0.751416,0.75142 v 0.30692 h -1.058334 v -1.05834 h 0.306917 l 0.751417,-0.75141 v -0.30692 h 1.36525 l 0.751416,-0.75142 v -0.30691 h 1.058334 v 1.05833 h -0.306917 l -0.751417,0.75142 v 0.30691 z m -0.4445,2.11667 0.751417,-0.75142 v -0.30691 h 1.058333 v 0.30691 l 0.751417,0.75142 h 0.306917 v 1.05833 h -0.306917 l -0.751417,0.75142 v 0.30692 h -1.058333 v -0.30692 l -0.740833,-0.75142 h -0.3175 v -1.05833 z m -1.058333,-6.35 0.751417,-0.75142 v -0.30691 h 1.058333 v 0.30691 l 0.751417,0.75142 h 0.306916 v 1.05833 H 63.53326 l -0.751417,0.75142 v 0.30692 H 61.72351 v -0.30692 l -0.740834,-0.75142 h -0.3175 v -1.05833 z"
         style="line-height:100%;stroke-width:0.26458332"
         id="path4808" />
      <path
         d="m 71.566012,228.77529 h -0.3175 v -5.29166 h 1.058334 v 4.54025 l 0.751416,0.75141 h 1.36525 v -5.29166 h 1.058333 v 6.35 h -3.174999 v -0.30692 z"
         style="line-height:100%;stroke-width:0.26458332"
         id="path4810" />
      <path
         d="m 77.59851,224.54196 v 5.29167 h -1.058334 v -6.35 h 3.175 v 0.30691 l 0.751417,0.75142 h 0.306917 v 5.29167 h -1.058334 v -4.54025 l -0.740833,-0.75142 z"
         style="line-height:100%;stroke-width:0.26458332"
         id="path4812" />
      <path
         d="m 85.006844,226.65863 v 1.36525 l 0.751417,0.75141 h 0.306917 v 1.05834 h -1.058334 v -0.30692 l -0.740833,-0.75142 h -0.3175 v -1.36525 l -0.740833,-0.75141 h -0.3175 v 3.175 h -1.058334 v -9.525 h 1.058334 v 5.29166 h 0.306916 l 1.80975,-1.80975 v -0.30691 h 1.058334 v 1.05833 h -0.306917 l -1.5875,1.5875 0.529167,0.52917 z"
         style="line-height:100%;stroke-width:0.26458332"
         id="path4814" />
      <path
         d="m 88.181846,228.02388 0.751416,0.75141 h 0.613834 l 0.751416,-0.75141 v -2.7305 l -0.740833,-0.75142 h -0.624417 l -0.751416,0.75142 z m -0.751417,-3.48192 0.751417,-0.75142 v -0.30691 h 2.116666 v 0.30691 l 0.751417,0.75142 h 0.306916 v 4.23333 h -0.306916 l -0.751417,0.75142 v 0.30692 h -2.116666 v -0.30692 l -0.740834,-0.75142 h -0.3175 v -4.23333 z"
         style="line-height:100%;stroke-width:0.26458332"
         id="path4816" />
      <path
         d="m 101.94017,229.83363 h -3.174996 v -1.05834 h 1.058333 v -6.35 h -1.058333 v -1.05833 h 1.058333 v -1.05833 h 1.058333 v 8.46666 h 1.05833 z"
         style="line-height:100%;stroke-width:0.26458332"
         id="path4818" />
      <path
         d="m 105.4221,228.77529 0.75141,-0.75141 v -5.9055 l -0.74083,-0.75142 h -0.62442 l -0.75141,0.75142 v 5.9055 l 0.75141,0.75141 z m -2.11667,-7.40833 0.75142,-0.75142 v -0.30691 h 2.11666 v 0.30691 l 0.75142,0.75142 h 0.30692 v 7.40833 h -0.30692 l -0.75142,0.75142 v 0.30692 h -2.11666 v -0.30692 l -0.74084,-0.75142 h -0.3175 v -7.40833 z"
         style="line-height:100%;stroke-width:0.26458332"
         id="path4820" />
      <path
         d="m 110.93601,227.92863 -0.30692,0.3175 0.30692,0.30691 0.30692,-0.30691 z m -1.05833,-6.35 -0.30692,0.3175 0.30692,0.30691 0.3175,-0.30691 z m 0.22225,4.02166 -0.75142,0.75142 v 0.30692 h -1.05833 v -1.05834 h 0.30691 l 0.75142,-0.75141 v -0.30692 h 1.36525 l 0.75142,-0.75142 v -0.30691 h 1.05833 v 1.05833 h -0.30692 l -0.75141,0.75142 v 0.30691 z m -0.4445,2.11667 0.75141,-0.75142 v -0.30691 h 1.05834 v 0.30691 l 0.75141,0.75142 h 0.30692 v 1.05833 h -0.30692 l -0.75141,0.75142 v 0.30692 h -1.05834 v -0.30692 l -0.74083,-0.75142 h -0.3175 v -1.05833 z m -1.05834,-6.35 0.75142,-0.75142 v -0.30691 h 1.05833 v 0.30691 l 0.75142,0.75142 h 0.30692 v 1.05833 h -0.30692 l -0.75142,0.75142 v 0.30692 h -1.05833 v -0.30692 l -0.74083,-0.75142 h -0.3175 v -1.05833 z"
         style="line-height:100%;stroke-width:0.26458332"
         id="path4822" />
    </g>
    <path
       style="color:#000000;clip-rule:nonzero;display:inline;overflow:visible;visibility:visible;opacity:1;isolation:auto;mix-blend-mode:normal;color-interpolation:sRGB;color-interpolation-filters:linearRGB;solid-color:#000000;solid-opacity:1;vector-effect:none;fill:#ffffff;fill-opacity:1;fill-rule:nonzero;stroke:#000000;stroke-width:0.18179654;stroke-linecap:round;stroke-linejoin:miter;stroke-miterlimit:4;stroke-dasharray:none;stroke-dashoffset:0;stroke-opacity:1;marker:none;color-rendering:auto;image-rendering:auto;shape-rendering:auto;text-rendering:auto;enable-background:accumulate"
       d="m 154.02373,252.55209 h 30.24686 v 11.33929 h -30.24686 z"
       id="rect4485-8-49-7-0-4-4" />
    <g
       aria-label="削除"
       style="color:#000000;font-style:normal;font-variant:normal;font-weight:bold;font-stretch:normal;font-size:10.58333302px;line-height:6.61458349px;font-family:'BT 10G Smooth Regular';-inkscape-font-specification:'BT 10G Smooth Regular, Bold';text-indent:0;text-align:start;text-decoration:none;text-decoration-line:none;text-decoration-style:solid;text-decoration-color:#000000;letter-spacing:normal;word-spacing:normal;text-transform:none;writing-mode:lr-tb;direction:ltr;baseline-shift:baseline;text-anchor:start;white-space:normal;clip-rule:nonzero;display:inline;overflow:visible;visibility:visible;opacity:1;isolation:auto;mix-blend-mode:normal;color-interpolation:sRGB;color-interpolation-filters:linearRGB;solid-color:#000000;solid-opacity:1;vector-effect:none;fill:#ffffff;fill-opacity:1;fill-rule:nonzero;stroke:#000000;stroke-width:0.26458332;stroke-linecap:round;stroke-linejoin:miter;stroke-miterlimit:4;stroke-dasharray:none;stroke-dashoffset:0;stroke-opacity:1;marker:none;color-rendering:auto;image-rendering:auto;shape-rendering:auto;text-rendering:auto;enable-background:accumulate"
       id="text4576-9-6">
      <path
         d="m 165.74536,255.08454 v -2.11667 h 1.05833 v 2.11667 z m 4.23333,0 v -2.11667 h 1.05834 v 2.11667 z m -3.175,4.23333 v 1.05834 h 3.175 v -1.05834 z m 3.175,-1.05833 v -1.05833 h -3.175 v 1.05833 z m 2.11667,2.11667 v -6.35 h 1.05833 v 6.35 z m 2.11667,1.05833 v -8.46667 h 1.05833 v 9.525 h -2.11667 v -1.05833 z m -7.40834,1.05833 h -1.05833 v -6.35 h 2.11667 v -3.175 h 1.05833 v 3.175 h 2.11667 v 6.35 h -1.05834 v -1.05833 h -3.175 z"
         style="stroke-width:0.26458332"
         id="path4826" />
      <path
         d="m 178.44536,254.02621 h -1.05833 v 2.11666 h 0.30691 l 0.75142,-0.75141 z m 0,5.29166 v -1.36525 l -0.74083,-0.75141 h -0.3175 v 2.11666 z m 7.40833,2.11667 v 1.05833 h -1.05833 v -0.30691 l -0.74083,-0.75142 h -0.3175 v -1.05833 h 1.05833 v 0.30691 l 0.75142,0.75142 z m -4.23333,-3.175 v -1.05833 h -1.05833 v -0.30692 l -0.74084,-0.75142 h -0.62441 l -0.52917,0.52917 0.52917,0.52917 h 0.30691 v 1.05833 z m -0.30692,-2.11667 h 2.7305 l 0.52917,-0.52916 -1.57692,-1.5875 h -0.62441 l -1.5875,1.5875 z m 2.42359,-2.86808 1.80975,1.80975 h 0.30691 v 1.05833 h -0.30691 l -0.75142,0.75142 v 0.30692 h -2.11667 v 1.05833 h 3.175 v 1.05833 h -3.175 v 3.175 h -1.05833 v -3.175 h -2.11667 v 0.30692 l 0.75142,0.75142 h 0.30692 v 1.05833 h -0.30692 l -0.75142,0.75142 v 0.30691 h -1.05833 v -1.05833 h 0.30692 l 0.52916,-0.52917 -0.51858,-0.52916 h -1.37583 v 2.11666 h -1.05834 v -9.525 h 3.175 v 2.11667 h 0.30692 l 1.80975,-1.80975 v -0.30692 h 2.11667 z"
         style="stroke-width:0.26458332"
         id="path4828" />
    </g>
    <g
       aria-label="Braton
unko 10% unko 10%
unko 10% unko 10%"
       style="color:#000000;font-style:normal;font-variant:normal;font-weight:bold;font-stretch:normal;font-size:10.58333302px;line-height:100%;font-family:'BT 10G Smooth Regular';-inkscape-font-specification:'BT 10G Smooth Regular, Bold';text-indent:0;text-align:start;text-decoration:none;text-decoration-line:none;text-decoration-style:solid;text-decoration-color:#000000;letter-spacing:normal;word-spacing:normal;text-transform:none;writing-mode:lr-tb;direction:ltr;baseline-shift:baseline;text-anchor:start;white-space:normal;clip-rule:nonzero;display:inline;overflow:visible;visibility:visible;opacity:1;isolation:auto;mix-blend-mode:normal;color-interpolation:sRGB;color-interpolation-filters:linearRGB;solid-color:#000000;solid-opacity:1;vector-effect:none;fill:#ffffff;fill-opacity:1;fill-rule:nonzero;stroke:#000000;stroke-width:0.26458332;stroke-linecap:round;stroke-linejoin:miter;stroke-miterlimit:4;stroke-dasharray:none;stroke-dashoffset:0;stroke-opacity:1;marker:none;color-rendering:auto;image-rendering:auto;shape-rendering:auto;text-rendering:auto;enable-background:accumulate"
       id="text4660-1">
      <path
         d="m 24.722462,248.2099 v -1.67216 l -0.740833,-0.75142 h -1.375833 v 3.175 h 1.36525 z m 0,-5.9055 -0.740833,-0.75141 h -1.375833 v 3.175 h 1.36525 l 0.751416,-0.75142 z m 1.058334,-0.75141 v 3.175 h -0.306917 l -0.529167,0.52916 0.529167,0.52917 h 0.306917 v 3.175 h -0.306917 l -0.751417,0.75142 v 0.30691 h -3.175 v -9.525 h 3.175 v 0.30692 l 0.751417,0.75142 z"
         style="line-height:100%;stroke-width:0.26458332"
         id="path4831" />
      <path
         d="m 28.955796,245.78632 h -1.058334 v 4.23333 h -1.058333 v -6.35 h 1.058333 v 1.05834 h 0.306917 l 0.751417,-0.75142 v -0.30692 h 2.116666 v 1.05834 h -1.36525 l -0.751416,0.75141 z"
         style="line-height:100%;stroke-width:0.26458332"
         id="path4833" />
      <path
         d="m 33.189129,248.2099 0.751416,0.75142 h 1.36525 v -2.11667 h -1.36525 l -0.751416,0.75142 z m 3.175,1.80975 h -3.175 v -0.30691 l -0.740834,-0.75142 h -0.3175 v -2.11667 h 0.306917 l 0.751417,-0.75141 v -0.30692 h 2.116666 v -0.30692 l -0.740833,-0.75141 h -1.375833 v -1.05834 h 2.116666 v 0.30692 l 0.751417,0.75142 h 0.306917 z"
         style="line-height:100%;stroke-width:0.26458332"
         id="path4835" />
      <path
         d="m 39.539129,249.71274 -0.740833,-0.75142 h -0.3175 v -4.23333 h -1.058334 v -1.05834 h 1.058334 v -2.11666 h 1.058333 v 2.11666 h 2.116667 v 1.05834 h -2.116667 v 3.48191 l 0.751417,0.75142 h 1.36525 v 1.05833 h -2.116667 z"
         style="line-height:100%;stroke-width:0.26458332"
         id="path4837" />
      <path
         d="m 43.772462,248.2099 0.751416,0.75142 h 0.613834 l 0.751416,-0.75142 v -2.7305 l -0.740833,-0.75141 h -0.624417 l -0.751416,0.75141 z m -0.751417,-3.48191 0.751417,-0.75142 v -0.30692 h 2.116666 v 0.30692 l 0.751417,0.75142 h 0.306917 v 4.23333 h -0.306917 l -0.751417,0.75142 v 0.30691 h -2.116666 v -0.30691 l -0.740834,-0.75142 h -0.3175 v -4.23333 z"
         style="line-height:100%;stroke-width:0.26458332"
         id="path4839" />
      <path
         d="m 49.064128,244.72799 v 5.29166 h -1.058333 v -6.35 h 3.174999 v 0.30692 l 0.751417,0.75142 h 0.306917 v 5.29166 h -1.058334 v -4.54025 l -0.740833,-0.75141 z"
         style="line-height:100%;stroke-width:0.26458332"
         id="path4841" />
      <path
         d="m 21.864962,259.54465 h -0.3175 v -5.29166 h 1.058334 v 4.54025 l 0.751416,0.75141 h 1.36525 v -5.29166 h 1.058334 v 6.35 h -3.175 v -0.30692 z"
         style="line-height:100%;stroke-width:0.26458332"
         id="path4843" />
      <path
         d="m 27.897462,255.31132 v 5.29167 h -1.058333 v -6.35 h 3.175 v 0.30691 l 0.751417,0.75142 h 0.306916 v 5.29167 h -1.058333 v -4.54025 l -0.740833,-0.75142 z"
         style="line-height:100%;stroke-width:0.26458332"
         id="path4845" />
      <path
         d="m 35.305795,257.42799 v 1.36525 l 0.751417,0.75141 h 0.306917 v 1.05834 h -1.058334 v -0.30692 l -0.740833,-0.75142 h -0.3175 v -1.36525 l -0.740833,-0.75141 h -0.3175 v 3.175 h -1.058334 v -9.525 h 1.058334 v 5.29166 h 0.306916 l 1.80975,-1.80975 v -0.30691 h 1.058334 v 1.05833 h -0.306917 l -1.5875,1.5875 0.529167,0.52917 z"
         style="line-height:100%;stroke-width:0.26458332"
         id="path4847" />
      <path
         d="m 38.480796,258.79324 0.751416,0.75141 h 0.613834 l 0.751416,-0.75141 v -2.7305 l -0.740833,-0.75142 h -0.624417 l -0.751416,0.75142 z m -0.751417,-3.48192 0.751417,-0.75142 v -0.30691 h 2.116666 v 0.30691 l 0.751417,0.75142 h 0.306917 v 4.23333 h -0.306917 l -0.751417,0.75142 v 0.30692 h -2.116666 v -0.30692 l -0.740834,-0.75142 h -0.3175 v -4.23333 z"
         style="line-height:100%;stroke-width:0.26458332"
         id="path4849" />
      <path
         d="m 52.239128,260.60299 h -3.175 v -1.05834 h 1.058333 v -6.35 h -1.058333 v -1.05833 h 1.058333 v -1.05833 h 1.058333 v 8.46666 h 1.058334 z"
         style="line-height:100%;stroke-width:0.26458332"
         id="path4851" />
      <path
         d="m 55.721046,259.54465 0.751416,-0.75141 v -5.9055 l -0.740833,-0.75142 h -0.624417 l -0.751416,0.75142 v 5.9055 l 0.751416,0.75141 z m -2.116667,-7.40833 0.751417,-0.75142 v -0.30691 h 2.116666 v 0.30691 l 0.751417,0.75142 h 0.306917 v 7.40833 h -0.306917 l -0.751417,0.75142 v 0.30692 h -2.116666 v -0.30692 l -0.740834,-0.75142 h -0.3175 v -7.40833 z"
         style="line-height:100%;stroke-width:0.26458332"
         id="path4853" />
      <path
         d="m 61.23496,258.69799 -0.306917,0.3175 0.306917,0.30691 0.306916,-0.30691 z m -1.058333,-6.35 -0.306917,0.3175 0.306917,0.30691 0.3175,-0.30691 z m 0.22225,4.02166 -0.751417,0.75142 v 0.30692 h -1.058333 v -1.05834 h 0.306916 l 0.751417,-0.75141 v -0.30692 h 1.36525 l 0.751416,-0.75142 v -0.30691 h 1.058334 v 1.05833 h -0.306917 l -0.751417,0.75142 v 0.30691 z m -0.4445,2.11667 0.751416,-0.75142 v -0.30691 h 1.058333 v 0.30691 l 0.751417,0.75142 h 0.306917 v 1.05833 h -0.306917 l -0.751417,0.75142 v 0.30692 h -1.058333 v -0.30692 l -0.740833,-0.75142 h -0.3175 v -1.05833 z m -1.058334,-6.35 0.751417,-0.75142 v -0.30691 h 1.058333 v 0.30691 l 0.751417,0.75142 h 0.306916 v 1.05833 H 61.45721 l -0.751417,0.75142 v 0.30692 H 59.64746 v -0.30692 l -0.740833,-0.75142 h -0.3175 v -1.05833 z"
         style="line-height:100%;stroke-width:0.26458332"
         id="path4855" />
      <path
         d="m 69.489962,259.54465 h -0.3175 v -5.29166 h 1.058334 v 4.54025 l 0.751416,0.75141 h 1.36525 v -5.29166 h 1.058334 v 6.35 h -3.175 v -0.30692 z"
         style="line-height:100%;stroke-width:0.26458332"
         id="path4857" />
      <path
         d="m 75.52246,255.31132 v 5.29167 h -1.058333 v -6.35 h 3.174999 v 0.30691 l 0.751417,0.75142 h 0.306917 v 5.29167 h -1.058334 v -4.54025 l -0.740833,-0.75142 z"
         style="line-height:100%;stroke-width:0.26458332"
         id="path4859" />
      <path
         d="m 82.930794,257.42799 v 1.36525 l 0.751417,0.75141 h 0.306917 v 1.05834 h -1.058334 v -0.30692 l -0.740833,-0.75142 h -0.3175 v -1.36525 l -0.740833,-0.75141 h -0.3175 v 3.175 h -1.058333 v -9.525 h 1.058333 v 5.29166 h 0.306916 l 1.80975,-1.80975 v -0.30691 h 1.058334 v 1.05833 h -0.306917 l -1.5875,1.5875 0.529167,0.52917 z"
         style="line-height:100%;stroke-width:0.26458332"
         id="path4861" />
      <path
         d="m 86.105796,258.79324 0.751416,0.75141 h 0.613834 l 0.751416,-0.75141 v -2.7305 l -0.740833,-0.75142 h -0.624417 l -0.751416,0.75142 z m -0.751417,-3.48192 0.751417,-0.75142 v -0.30691 h 2.116666 v 0.30691 l 0.751417,0.75142 h 0.306917 v 4.23333 h -0.306917 l -0.751417,0.75142 v 0.30692 h -2.116666 v -0.30692 l -0.740834,-0.75142 h -0.3175 v -4.23333 z"
         style="line-height:100%;stroke-width:0.26458332"
         id="path4863" />
      <path
         d="m 99.864124,260.60299 h -3.175 v -1.05834 h 1.058333 v -6.35 h -1.058333 v -1.05833 h 1.058333 v -1.05833 h 1.058334 v 8.46666 h 1.058333 z"
         style="line-height:100%;stroke-width:0.26458332"
         id="path4865" />
      <path
         d="m 103.34605,259.54465 0.75141,-0.75141 v -5.9055 l -0.74083,-0.75142 h -0.62442 l -0.75141,0.75142 v 5.9055 l 0.75141,0.75141 z m -2.11667,-7.40833 0.75142,-0.75142 v -0.30691 h 2.11666 v 0.30691 l 0.75142,0.75142 h 0.30692 v 7.40833 h -0.30692 l -0.75142,0.75142 v 0.30692 h -2.11666 v -0.30692 l -0.74084,-0.75142 h -0.3175 v -7.40833 z"
         style="line-height:100%;stroke-width:0.26458332"
         id="path4867" />
      <path
         d="m 108.85996,258.69799 -0.30692,0.3175 0.30692,0.30691 0.30692,-0.30691 z m -1.05833,-6.35 -0.30692,0.3175 0.30692,0.30691 0.3175,-0.30691 z m 0.22225,4.02166 -0.75142,0.75142 v 0.30692 h -1.05833 v -1.05834 h 0.30691 l 0.75142,-0.75141 v -0.30692 h 1.36525 l 0.75142,-0.75142 v -0.30691 h 1.05833 v 1.05833 h -0.30692 l -0.75141,0.75142 v 0.30691 z m -0.4445,2.11667 0.75141,-0.75142 v -0.30691 h 1.05834 v 0.30691 l 0.75141,0.75142 h 0.30692 v 1.05833 h -0.30692 l -0.75141,0.75142 v 0.30692 h -1.05834 v -0.30692 l -0.74083,-0.75142 h -0.3175 v -1.05833 z m -1.05834,-6.35 0.75142,-0.75142 v -0.30691 h 1.05833 v 0.30691 l 0.75142,0.75142 h 0.30692 v 1.05833 h -0.30692 l -0.75142,0.75142 v 0.30692 h -1.05833 v -0.30692 l -0.74083,-0.75142 h -0.3175 v -1.05833 z"
         style="line-height:100%;stroke-width:0.26458332"
         id="path4869" />
      <path
         d="m 21.864962,270.12799 h -0.3175 v -5.29167 h 1.058334 v 4.54025 l 0.751416,0.75142 h 1.36525 v -5.29167 h 1.058334 v 6.35 h -3.175 v -0.30692 z"
         style="line-height:100%;stroke-width:0.26458332"
         id="path4871" />
      <path
         d="m 27.897462,265.89465 v 5.29167 h -1.058333 v -6.35 h 3.175 v 0.30692 l 0.751417,0.75141 h 0.306916 v 5.29167 h -1.058333 v -4.54025 l -0.740833,-0.75142 z"
         style="line-height:100%;stroke-width:0.26458332"
         id="path4873" />
      <path
         d="m 35.305795,268.01132 v 1.36525 l 0.751417,0.75142 h 0.306917 v 1.05833 h -1.058334 v -0.30692 l -0.740833,-0.75141 h -0.3175 v -1.36525 l -0.740833,-0.75142 h -0.3175 v 3.175 h -1.058334 v -9.525 h 1.058334 v 5.29167 h 0.306916 l 1.80975,-1.80975 v -0.30692 h 1.058334 v 1.05833 h -0.306917 l -1.5875,1.5875 0.529167,0.52917 z"
         style="line-height:100%;stroke-width:0.26458332"
         id="path4875" />
      <path
         d="m 38.480796,269.37657 0.751416,0.75142 h 0.613834 l 0.751416,-0.75142 v -2.7305 l -0.740833,-0.75142 h -0.624417 l -0.751416,0.75142 z m -0.751417,-3.48192 0.751417,-0.75141 v -0.30692 h 2.116666 v 0.30692 l 0.751417,0.75141 h 0.306917 v 4.23334 h -0.306917 l -0.751417,0.75141 v 0.30692 h -2.116666 v -0.30692 l -0.740834,-0.75141 h -0.3175 v -4.23334 z"
         style="line-height:100%;stroke-width:0.26458332"
         id="path4877" />
      <path
         d="m 52.239128,271.18632 h -3.175 v -1.05833 h 1.058333 v -6.35 h -1.058333 v -1.05834 h 1.058333 v -1.05833 h 1.058333 v 8.46667 h 1.058334 z"
         style="line-height:100%;stroke-width:0.26458332"
         id="path4879" />
      <path
         d="m 55.721046,270.12799 0.751416,-0.75142 v -5.9055 l -0.740833,-0.75142 h -0.624417 l -0.751416,0.75142 v 5.9055 l 0.751416,0.75142 z m -2.116667,-7.40834 0.751417,-0.75141 v -0.30692 h 2.116666 v 0.30692 l 0.751417,0.75141 h 0.306917 v 7.40834 h -0.306917 l -0.751417,0.75141 v 0.30692 h -2.116666 v -0.30692 l -0.740834,-0.75141 h -0.3175 v -7.40834 z"
         style="line-height:100%;stroke-width:0.26458332"
         id="path4881" />
      <path
         d="m 61.23496,269.28132 -0.306917,0.3175 0.306917,0.30692 0.306916,-0.30692 z m -1.058333,-6.35 -0.306917,0.3175 0.306917,0.30692 0.3175,-0.30692 z m 0.22225,4.02167 -0.751417,0.75141 v 0.30692 h -1.058333 v -1.05833 h 0.306916 l 0.751417,-0.75142 v -0.30692 h 1.36525 l 0.751416,-0.75141 v -0.30692 h 1.058334 v 1.05833 h -0.306917 l -0.751417,0.75142 v 0.30692 z m -0.4445,2.11666 0.751416,-0.75141 v -0.30692 h 1.058333 v 0.30692 l 0.751417,0.75141 h 0.306917 v 1.05834 h -0.306917 l -0.751417,0.75141 v 0.30692 h -1.058333 v -0.30692 l -0.740833,-0.75141 h -0.3175 v -1.05834 z m -1.058334,-6.35 0.751417,-0.75141 v -0.30692 h 1.058333 v 0.30692 l 0.751417,0.75141 h 0.306916 v 1.05834 H 61.45721 l -0.751417,0.75141 v 0.30692 H 59.64746 v -0.30692 l -0.740833,-0.75141 h -0.3175 v -1.05834 z"
         style="line-height:100%;stroke-width:0.26458332"
         id="path4883" />
      <path
         d="m 69.489962,270.12799 h -0.3175 v -5.29167 h 1.058334 v 4.54025 l 0.751416,0.75142 h 1.36525 v -5.29167 h 1.058334 v 6.35 h -3.175 v -0.30692 z"
         style="line-height:100%;stroke-width:0.26458332"
         id="path4885" />
      <path
         d="m 75.52246,265.89465 v 5.29167 h -1.058333 v -6.35 h 3.174999 v 0.30692 l 0.751417,0.75141 h 0.306917 v 5.29167 h -1.058334 v -4.54025 l -0.740833,-0.75142 z"
         style="line-height:100%;stroke-width:0.26458332"
         id="path4887" />
      <path
         d="m 82.930794,268.01132 v 1.36525 l 0.751417,0.75142 h 0.306917 v 1.05833 h -1.058334 v -0.30692 l -0.740833,-0.75141 h -0.3175 v -1.36525 l -0.740833,-0.75142 h -0.3175 v 3.175 h -1.058333 v -9.525 h 1.058333 v 5.29167 h 0.306916 l 1.80975,-1.80975 v -0.30692 h 1.058334 v 1.05833 h -0.306917 l -1.5875,1.5875 0.529167,0.52917 z"
         style="line-height:100%;stroke-width:0.26458332"
         id="path4889" />
      <path
         d="m 86.105796,269.37657 0.751416,0.75142 h 0.613834 l 0.751416,-0.75142 v -2.7305 l -0.740833,-0.75142 h -0.624417 l -0.751416,0.75142 z m -0.751417,-3.48192 0.751417,-0.75141 v -0.30692 h 2.116666 v 0.30692 l 0.751417,0.75141 h 0.306917 v 4.23334 h -0.306917 l -0.751417,0.75141 v 0.30692 h -2.116666 v -0.30692 l -0.740834,-0.75141 h -0.3175 v -4.23334 z"
         style="line-height:100%;stroke-width:0.26458332"
         id="path4891" />
      <path
         d="m 99.864124,271.18632 h -3.175 v -1.05833 h 1.058333 v -6.35 h -1.058333 v -1.05834 h 1.058333 v -1.05833 h 1.058334 v 8.46667 h 1.058333 z"
         style="line-height:100%;stroke-width:0.26458332"
         id="path4893" />
      <path
         d="m 103.34605,270.12799 0.75141,-0.75142 v -5.9055 l -0.74083,-0.75142 h -0.62442 l -0.75141,0.75142 v 5.9055 l 0.75141,0.75142 z m -2.11667,-7.40834 0.75142,-0.75141 v -0.30692 h 2.11666 v 0.30692 l 0.75142,0.75141 h 0.30692 v 7.40834 h -0.30692 l -0.75142,0.75141 v 0.30692 h -2.11666 v -0.30692 l -0.74084,-0.75141 h -0.3175 v -7.40834 z"
         style="line-height:100%;stroke-width:0.26458332"
         id="path4895" />
      <path
         d="m 108.85996,269.28132 -0.30692,0.3175 0.30692,0.30692 0.30692,-0.30692 z m -1.05833,-6.35 -0.30692,0.3175 0.30692,0.30692 0.3175,-0.30692 z m 0.22225,4.02167 -0.75142,0.75141 v 0.30692 h -1.05833 v -1.05833 h 0.30691 l 0.75142,-0.75142 v -0.30692 h 1.36525 l 0.75142,-0.75141 v -0.30692 h 1.05833 v 1.05833 h -0.30692 l -0.75141,0.75142 v 0.30692 z m -0.4445,2.11666 0.75141,-0.75141 v -0.30692 h 1.05834 v 0.30692 l 0.75141,0.75141 h 0.30692 v 1.05834 h -0.30692 l -0.75141,0.75141 v 0.30692 h -1.05834 v -0.30692 l -0.74083,-0.75141 h -0.3175 v -1.05834 z m -1.05834,-6.35 0.75142,-0.75141 v -0.30692 h 1.05833 v 0.30692 l 0.75142,0.75141 h 0.30692 v 1.05834 h -0.30692 l -0.75142,0.75141 v 0.30692 h -1.05833 v -0.30692 l -0.74083,-0.75141 h -0.3175 v -1.05834 z"
         style="line-height:100%;stroke-width:0.26458332"
         id="path4897" />
    </g>
  </g>
</svg>
